<?xml version="1.0" encoding="utf-8"?>
<!-- Generator: Adobe Illustrator 21.1.0, SVG Export Plug-In . SVG Version: 6.00 Build 0)  -->
<svg version="1.1" id="Layer_1" xmlns="http://www.w3.org/2000/svg" x="0px" y="0px"
	 viewBox="0 0 170 34.5" enable-background="new 0 0 170 34.5" xml:space="preserve">
<g>
	<g>
		<g>
			<g>
				<rect fill="#80C242" width="19.431" height="34.672"/>
			</g>
			<g>
				<path fill="#FFFFFF" d="M15.911,23.191c0,4.633-2.06,7.138-6.315,7.138c-4.017,0-6.076-2.573-6.076-7.138v-1.992h5.183v3.124
					c0,1.27,0.343,1.751,0.927,1.751c0.723,0,1.029-0.481,1.029-1.751V4.342h5.253V23.191z"/>
			</g>
		</g>
		<g>
			<g>
				<rect x="21.766" fill="#80C242" width="19.432" height="34.672"/>
			</g>
			<g>
				<path fill="#FFFFFF" d="M38.108,23.362c0,4.634-2.198,7.139-6.625,7.139c-4.394,0-6.626-2.574-6.626-7.139V11.279
					c0-4.635,2.232-7.108,6.626-7.108c4.427,0,6.625,2.473,6.625,7.108v1.339h-5.286v-2.3c0-1.339-0.379-1.923-1.34-1.923
					c-0.927,0-1.374,0.652-1.374,1.923v14.04c0,1.338,0.413,1.887,1.374,1.887c0.96,0,1.34-0.549,1.34-1.887v-4.497h5.286V23.362z"
					/>
			</g>
		</g>
		<g>
			<g>
				<rect x="43.531" fill="#80C242" width="19.431" height="34.672"/>
			</g>
			<g>
				<path fill="#FFFFFF" d="M59.873,23.362c0,4.634-2.199,7.139-6.626,7.139c-4.394,0-6.625-2.574-6.625-7.139V11.279
					c0-4.635,2.231-7.108,6.625-7.108c4.427,0,6.626,2.473,6.626,7.108v1.339h-5.288v-2.3c0-1.339-0.376-1.923-1.339-1.923
					c-0.927,0-1.373,0.652-1.373,1.923v14.04c0,1.338,0.412,1.887,1.373,1.887c0.962,0,1.339-0.549,1.339-1.887v-4.497h5.288V23.362
					z"/>
			</g>
		</g>
	</g>
	<g>
		<g>
			<path fill="#808184" d="M76.665,21.242c0,0.616-0.098,1.16-0.293,1.633c-0.196,0.473-0.473,0.875-0.834,1.206
				c-0.36,0.33-0.792,0.578-1.296,0.743c-0.503,0.165-1.055,0.248-1.656,0.248c-1.111,0-1.952-0.267-2.523-0.8
				c-0.571-0.533-0.924-1.273-1.059-2.219c-0.045-0.27,0.011-0.503,0.169-0.698c0.158-0.195,0.357-0.293,0.597-0.293
				c0.165,0,0.297,0.026,0.394,0.079c0.097,0.053,0.177,0.124,0.237,0.214c0.06,0.09,0.105,0.196,0.135,0.315
				c0.03,0.12,0.06,0.248,0.09,0.383c0.12,0.496,0.385,0.864,0.792,1.104c0.408,0.24,0.883,0.361,1.427,0.361
				c0.574,0,1.068-0.173,1.483-0.518c0.415-0.345,0.623-0.818,0.623-1.419c0-0.571-0.143-1.017-0.43-1.341
				c-0.286-0.323-0.648-0.586-1.086-0.789c-0.437-0.202-0.908-0.386-1.413-0.552c-0.505-0.165-0.976-0.372-1.413-0.619
				c-0.437-0.248-0.799-0.578-1.086-0.991c-0.286-0.413-0.429-0.972-0.429-1.678c0-0.496,0.086-0.958,0.259-1.386
				c0.173-0.428,0.409-0.796,0.71-1.104c0.3-0.308,0.66-0.548,1.081-0.721c0.42-0.173,0.886-0.259,1.397-0.259
				c1.021,0,1.832,0.203,2.433,0.608c0.6,0.406,0.999,1.052,1.194,1.937c0.06,0.286,0.045,0.515-0.045,0.687
				c-0.09,0.173-0.308,0.282-0.653,0.327c-0.286,0.03-0.5-0.06-0.642-0.27c-0.143-0.21-0.266-0.458-0.372-0.744
				c-0.12-0.33-0.315-0.597-0.586-0.8c-0.27-0.202-0.623-0.304-1.059-0.304c-0.556,0-1.04,0.147-1.453,0.439
				c-0.413,0.293-0.619,0.74-0.619,1.341c0,0.541,0.146,0.965,0.439,1.273c0.293,0.308,0.657,0.56,1.093,0.755
				c0.436,0.196,0.913,0.372,1.43,0.53c0.518,0.157,0.995,0.364,1.431,0.619c0.435,0.256,0.799,0.59,1.092,1.003
				C76.519,19.954,76.665,20.521,76.665,21.242z"/>
			<path fill="#808184" d="M72.587,25.142c-1.124,0-1.989-0.275-2.571-0.819c-0.58-0.542-0.944-1.302-1.081-2.261
				c-0.048-0.287,0.014-0.541,0.184-0.752c0.172-0.212,0.391-0.319,0.652-0.319c0.176,0,0.32,0.029,0.428,0.087
				c0.108,0.059,0.196,0.138,0.263,0.237c0.064,0.096,0.112,0.21,0.145,0.337c0.03,0.121,0.06,0.249,0.091,0.385
				c0.114,0.473,0.37,0.829,0.759,1.058c0.395,0.233,0.862,0.351,1.39,0.351c0.554,0,1.038-0.169,1.438-0.502
				c0.396-0.33,0.597-0.789,0.597-1.364c0-0.55-0.139-0.985-0.412-1.294c-0.279-0.314-0.636-0.573-1.062-0.771
				c-0.431-0.199-0.904-0.384-1.406-0.549c-0.506-0.165-0.986-0.375-1.427-0.625c-0.444-0.252-0.817-0.593-1.109-1.012
				c-0.293-0.423-0.442-1.001-0.442-1.719c0-0.504,0.089-0.979,0.264-1.412c0.175-0.435,0.419-0.814,0.725-1.127
				c0.305-0.313,0.677-0.561,1.105-0.737c0.427-0.176,0.906-0.264,1.424-0.264c1.031,0,1.863,0.209,2.473,0.62
				c0.614,0.415,1.026,1.081,1.224,1.981c0.064,0.301,0.046,0.549-0.051,0.735c-0.101,0.194-0.339,0.316-0.707,0.364
				c-0.041,0.004-0.078,0.006-0.114,0.006c-0.258,0-0.459-0.104-0.596-0.308c-0.145-0.213-0.273-0.468-0.379-0.759
				c-0.115-0.316-0.304-0.574-0.562-0.768c-0.257-0.192-0.599-0.29-1.016-0.29c-0.538,0-1.013,0.144-1.412,0.426
				c-0.396,0.282-0.59,0.701-0.59,1.283c0,0.52,0.141,0.931,0.419,1.224c0.286,0.301,0.646,0.549,1.07,0.739
				c0.427,0.191,0.905,0.369,1.422,0.526c0.519,0.158,1.006,0.369,1.446,0.626c0.443,0.26,0.817,0.604,1.114,1.023
				c0.301,0.424,0.453,1.01,0.453,1.742c0,0.622-0.1,1.18-0.298,1.66c-0.198,0.481-0.485,0.895-0.851,1.231
				c-0.366,0.336-0.811,0.591-1.321,0.758C73.757,25.057,73.193,25.142,72.587,25.142z M69.771,21.132
				c-0.22,0-0.396,0.087-0.542,0.266c-0.145,0.181-0.196,0.391-0.154,0.642c0.133,0.927,0.481,1.66,1.037,2.179
				C70.668,24.738,71.5,25,72.587,25c0.591,0,1.14-0.082,1.634-0.244c0.491-0.161,0.918-0.406,1.27-0.728
				c0.351-0.322,0.625-0.719,0.816-1.18c0.191-0.463,0.288-1.003,0.288-1.606c0-0.702-0.144-1.261-0.426-1.66
				c-0.286-0.402-0.645-0.733-1.071-0.983c-0.43-0.252-0.907-0.458-1.415-0.613c-0.523-0.159-1.007-0.339-1.439-0.533
				c-0.441-0.197-0.816-0.457-1.115-0.77c-0.305-0.32-0.459-0.764-0.459-1.321c0-0.622,0.219-1.093,0.649-1.398
				c0.424-0.301,0.926-0.453,1.494-0.453c0.449,0,0.819,0.107,1.101,0.318c0.28,0.21,0.485,0.49,0.61,0.832
				c0.103,0.279,0.225,0.524,0.364,0.728c0.129,0.19,0.316,0.269,0.576,0.24c0.318-0.042,0.519-0.139,0.597-0.289
				c0.082-0.157,0.095-0.373,0.039-0.64c-0.19-0.862-0.582-1.499-1.164-1.893c-0.586-0.395-1.392-0.596-2.394-0.596
				c-0.499,0-0.96,0.086-1.37,0.254c-0.41,0.169-0.766,0.406-1.057,0.705c-0.293,0.3-0.527,0.664-0.695,1.081
				c-0.169,0.417-0.254,0.874-0.254,1.359c0,0.688,0.14,1.239,0.417,1.638c0.279,0.402,0.637,0.728,1.063,0.97
				c0.432,0.245,0.903,0.451,1.4,0.614c0.507,0.166,0.985,0.353,1.421,0.555c0.444,0.206,0.817,0.477,1.109,0.806
				c0.297,0.335,0.447,0.802,0.447,1.387c0,0.62-0.218,1.116-0.648,1.474c-0.426,0.354-0.941,0.534-1.529,0.534
				c-0.553,0-1.046-0.125-1.463-0.371c-0.423-0.249-0.701-0.636-0.825-1.148c-0.03-0.135-0.061-0.263-0.09-0.382
				c-0.028-0.112-0.07-0.211-0.125-0.293c-0.053-0.079-0.124-0.144-0.211-0.191C70.045,21.156,69.924,21.132,69.771,21.132z"/>
		</g>
		<g>
			<path fill="#808184" d="M94.372,23.742c0,0.256-0.083,0.485-0.247,0.687c-0.166,0.203-0.376,0.304-0.631,0.304
				c-0.255,0-0.469-0.101-0.642-0.304c-0.173-0.203-0.259-0.432-0.259-0.687v-7.479c0-0.315-0.015-0.627-0.045-0.935
				c-0.03-0.308-0.101-0.582-0.214-0.822c-0.112-0.24-0.286-0.436-0.518-0.586c-0.233-0.15-0.552-0.225-0.957-0.225
				c-0.36,0-0.691,0.064-0.991,0.191c-0.3,0.128-0.563,0.305-0.788,0.529c-0.225,0.225-0.398,0.492-0.518,0.8
				c-0.12,0.308-0.18,0.635-0.18,0.98v7.546c0,0.256-0.083,0.485-0.248,0.687c-0.165,0.203-0.375,0.304-0.631,0.304
				c-0.256,0-0.469-0.101-0.642-0.304c-0.173-0.203-0.259-0.432-0.259-0.687v-7.569c0-0.301-0.026-0.597-0.079-0.89
				c-0.053-0.293-0.147-0.559-0.282-0.799c-0.135-0.24-0.319-0.432-0.552-0.574c-0.233-0.143-0.529-0.214-0.89-0.214
				c-0.331,0-0.646,0.06-0.946,0.18c-0.301,0.121-0.563,0.289-0.789,0.507c-0.225,0.218-0.405,0.473-0.541,0.766
				c-0.135,0.293-0.202,0.619-0.202,0.98v7.614c0,0.256-0.075,0.485-0.225,0.687c-0.151,0.203-0.353,0.304-0.608,0.304
				c-0.256,0-0.462-0.101-0.62-0.304c-0.157-0.203-0.236-0.432-0.236-0.687V13.447c0-0.24,0.064-0.465,0.191-0.676
				c0.128-0.21,0.312-0.323,0.552-0.338c0.255-0.015,0.454,0.087,0.597,0.304c0.143,0.218,0.214,0.455,0.214,0.71v0.496
				c0.345-0.601,0.807-1.051,1.386-1.352c0.578-0.3,1.205-0.451,1.881-0.451c0.586,0,1.138,0.147,1.656,0.439
				c0.518,0.293,0.852,0.747,1.002,1.363c0.3-0.586,0.74-1.033,1.318-1.341c0.578-0.307,1.197-0.462,1.858-0.462
				c0.931,0,1.678,0.278,2.242,0.834c0.563,0.556,0.845,1.284,0.845,2.185V23.742z"/>
			<path fill="#808184" d="M93.493,24.804c-0.276,0-0.51-0.11-0.696-0.329c-0.183-0.215-0.276-0.462-0.276-0.733v-7.479
				c0-0.31-0.015-0.622-0.045-0.928c-0.03-0.3-0.1-0.569-0.208-0.799c-0.107-0.227-0.272-0.414-0.493-0.556
				c-0.22-0.142-0.529-0.214-0.919-0.214c-0.348,0-0.673,0.063-0.964,0.186c-0.291,0.124-0.549,0.297-0.766,0.514
				c-0.218,0.218-0.387,0.478-0.503,0.775c-0.116,0.298-0.176,0.619-0.176,0.954v7.546c0,0.271-0.089,0.517-0.264,0.732
				c-0.179,0.219-0.409,0.33-0.686,0.33c-0.276,0-0.51-0.11-0.696-0.329c-0.183-0.215-0.276-0.461-0.276-0.733v-7.569
				c0-0.294-0.026-0.59-0.078-0.878c-0.051-0.284-0.143-0.545-0.274-0.777c-0.129-0.228-0.306-0.413-0.527-0.549
				c-0.22-0.135-0.508-0.204-0.853-0.204c-0.32,0-0.629,0.059-0.92,0.175c-0.291,0.117-0.549,0.282-0.766,0.492
				c-0.218,0.211-0.395,0.461-0.526,0.745c-0.13,0.282-0.196,0.602-0.196,0.95v7.614c0,0.269-0.081,0.515-0.239,0.729
				c-0.164,0.221-0.388,0.333-0.665,0.333c-0.277,0-0.505-0.111-0.676-0.331c-0.166-0.215-0.251-0.461-0.251-0.731V13.447
				c0-0.253,0.068-0.492,0.201-0.712c0.14-0.231,0.344-0.356,0.608-0.373c0.284-0.013,0.504,0.097,0.66,0.336
				c0.15,0.229,0.226,0.481,0.226,0.749v0.246c0.334-0.505,0.765-0.896,1.282-1.165c0.586-0.304,1.23-0.459,1.914-0.459
				c0.595,0,1.164,0.151,1.691,0.449c0.484,0.274,0.816,0.689,0.989,1.237c0.302-0.522,0.727-0.93,1.263-1.216
				c0.586-0.312,1.223-0.47,1.892-0.47c0.946,0,1.716,0.287,2.291,0.854c0.574,0.567,0.866,1.319,0.866,2.236v8.583
				c0,0.271-0.089,0.517-0.263,0.732C94,24.693,93.769,24.804,93.493,24.804z M90.858,13.624c0.417,0,0.752,0.08,0.996,0.237
				c0.243,0.157,0.426,0.364,0.544,0.615c0.115,0.245,0.19,0.529,0.22,0.846c0.03,0.31,0.045,0.627,0.045,0.942v7.479
				c0,0.24,0.079,0.45,0.243,0.641c0.159,0.188,0.352,0.279,0.588,0.279c0.235,0,0.423-0.091,0.576-0.278
				c0.155-0.192,0.231-0.402,0.231-0.642v-8.583c0-0.877-0.277-1.595-0.824-2.135c-0.547-0.539-1.284-0.813-2.192-0.813
				c-0.645,0-1.259,0.153-1.825,0.454c-0.563,0.3-0.996,0.741-1.288,1.31l-0.087,0.17l-0.045-0.185
				c-0.145-0.593-0.47-1.036-0.968-1.318c-0.505-0.286-1.051-0.43-1.621-0.43c-0.661,0-1.283,0.149-1.848,0.443
				c-0.564,0.293-1.02,0.739-1.357,1.324l-0.132,0.231v-0.762c0-0.24-0.068-0.466-0.202-0.671c-0.129-0.197-0.301-0.285-0.534-0.272
				c-0.217,0.014-0.379,0.113-0.495,0.304c-0.12,0.198-0.181,0.413-0.181,0.639v10.295c0,0.241,0.072,0.452,0.221,0.644
				c0.145,0.186,0.329,0.277,0.564,0.277c0.233,0,0.414-0.09,0.551-0.275c0.14-0.19,0.212-0.407,0.212-0.645v-7.614
				c0-0.369,0.07-0.708,0.209-1.01c0.139-0.3,0.326-0.565,0.556-0.787c0.231-0.223,0.504-0.398,0.812-0.522
				c0.308-0.123,0.635-0.185,0.972-0.185c0.372,0,0.684,0.075,0.927,0.224c0.242,0.148,0.436,0.35,0.576,0.6
				c0.138,0.246,0.236,0.522,0.29,0.821c0.053,0.297,0.08,0.6,0.08,0.903v7.569c0,0.241,0.079,0.45,0.242,0.641
				c0.16,0.188,0.352,0.279,0.588,0.279c0.235,0,0.423-0.091,0.575-0.278c0.156-0.192,0.232-0.402,0.232-0.642v-7.546
				c0-0.352,0.062-0.691,0.185-1.006c0.123-0.315,0.303-0.593,0.534-0.824c0.23-0.23,0.503-0.413,0.811-0.544
				C90.147,13.69,90.49,13.624,90.858,13.624z"/>
		</g>
		<g>
			<path fill="#808184" d="M106.582,24.103c-0.015,0.255-0.12,0.443-0.315,0.563c-0.196,0.12-0.436,0.18-0.721,0.18
				c-0.51,0-0.901-0.172-1.171-0.518c-0.27-0.346-0.405-0.751-0.405-1.217c-0.27,0.601-0.646,1.074-1.126,1.419
				c-0.481,0.346-1.059,0.518-1.735,0.518c-0.496,0-0.924-0.098-1.284-0.293c-0.36-0.195-0.661-0.454-0.901-0.777
				c-0.24-0.323-0.417-0.69-0.529-1.104c-0.113-0.413-0.169-0.837-0.169-1.273c0-0.736,0.132-1.333,0.395-1.791
				c0.263-0.458,0.589-0.826,0.98-1.104c0.391-0.278,0.818-0.496,1.284-0.654c0.465-0.157,0.908-0.308,1.329-0.45
				c0.42-0.143,0.777-0.3,1.07-0.473c0.293-0.173,0.469-0.417,0.529-0.732v-1.397c0-0.54-0.188-0.916-0.563-1.126
				c-0.375-0.21-0.796-0.315-1.261-0.315c-0.481,0-0.849,0.109-1.104,0.327c-0.256,0.218-0.436,0.507-0.541,0.868
				c-0.045,0.135-0.083,0.263-0.113,0.383c-0.03,0.12-0.079,0.229-0.146,0.327c-0.067,0.098-0.151,0.173-0.248,0.225
				c-0.098,0.053-0.237,0.071-0.417,0.056c-0.241-0.03-0.439-0.131-0.597-0.304c-0.157-0.173-0.206-0.402-0.146-0.687
				c0.15-0.841,0.503-1.487,1.059-1.937c0.555-0.451,1.329-0.676,2.32-0.676c1.186,0,2.069,0.252,2.647,0.755
				c0.578,0.504,0.867,1.348,0.867,2.534v7.164c0,0.256,0.06,0.466,0.18,0.631c0.075,0.09,0.161,0.157,0.259,0.202
				c0.097,0.045,0.192,0.09,0.282,0.135c0.09,0.045,0.165,0.105,0.225,0.18C106.574,23.818,106.596,23.937,106.582,24.103z
				 M103.856,18.133c-0.195,0.255-0.428,0.447-0.698,0.574c-0.27,0.128-0.552,0.233-0.845,0.315
				c-0.293,0.083-0.578,0.169-0.856,0.259c-0.278,0.09-0.526,0.221-0.744,0.394c-0.218,0.173-0.394,0.409-0.529,0.71
				c-0.135,0.3-0.202,0.713-0.202,1.239c0,0.211,0.026,0.428,0.079,0.653c0.052,0.225,0.135,0.432,0.248,0.619
				c0.112,0.188,0.259,0.342,0.439,0.462c0.18,0.12,0.398,0.18,0.654,0.18c0.405,0,0.758-0.087,1.058-0.259
				c0.3-0.173,0.555-0.402,0.766-0.687c0.21-0.285,0.368-0.604,0.473-0.957c0.105-0.352,0.157-0.717,0.157-1.093V18.133z"/>
			<path fill="#808184" d="M101.108,25.119c-0.505,0-0.948-0.101-1.318-0.301c-0.368-0.199-0.68-0.468-0.924-0.797
				c-0.244-0.329-0.427-0.708-0.541-1.128c-0.114-0.416-0.172-0.851-0.172-1.291c0-0.745,0.136-1.359,0.404-1.826
				c0.266-0.465,0.603-0.844,1-1.126c0.395-0.281,0.834-0.504,1.302-0.663l1.329-0.45c0.416-0.141,0.771-0.299,1.057-0.467
				c0.277-0.163,0.439-0.387,0.496-0.684l-0.001-1.384c0-0.517-0.173-0.865-0.527-1.064c-0.364-0.203-0.776-0.307-1.227-0.307
				c-0.461,0-0.816,0.104-1.058,0.31c-0.244,0.208-0.419,0.488-0.519,0.833c-0.045,0.135-0.082,0.263-0.112,0.38
				c-0.033,0.129-0.086,0.247-0.157,0.35c-0.073,0.106-0.165,0.19-0.272,0.247c-0.11,0.058-0.262,0.08-0.456,0.065
				c-0.26-0.032-0.475-0.142-0.644-0.327c-0.173-0.19-0.228-0.442-0.163-0.749c0.152-0.853,0.517-1.518,1.084-1.978
				c0.566-0.459,1.361-0.692,2.365-0.692c1.198,0,2.104,0.26,2.693,0.772c0.592,0.515,0.892,1.386,0.892,2.588v7.164
				c0,0.239,0.056,0.438,0.167,0.59c0.065,0.077,0.144,0.139,0.232,0.179c0.098,0.046,0.193,0.091,0.284,0.136
				c0.099,0.049,0.182,0.116,0.249,0.199c0.072,0.092,0.099,0.226,0.083,0.412c-0.017,0.276-0.134,0.485-0.349,0.617
				c-0.206,0.126-0.462,0.19-0.758,0.19c-0.531,0-0.945-0.183-1.227-0.545c-0.225-0.287-0.36-0.618-0.404-0.987
				c-0.263,0.496-0.609,0.9-1.03,1.203C102.393,24.941,101.795,25.119,101.108,25.119z M101.986,13.488
				c0.475,0,0.911,0.109,1.296,0.324c0.398,0.223,0.599,0.623,0.599,1.188v1.397c-0.065,0.349-0.254,0.611-0.564,0.793
				c-0.294,0.174-0.659,0.335-1.083,0.479l-1.329,0.45c-0.456,0.155-0.882,0.372-1.266,0.644c-0.38,0.27-0.703,0.634-0.959,1.081
				c-0.256,0.445-0.385,1.036-0.385,1.756c0,0.428,0.056,0.85,0.167,1.254c0.11,0.402,0.284,0.766,0.518,1.08
				c0.233,0.313,0.528,0.568,0.878,0.757c0.349,0.189,0.769,0.285,1.251,0.285c0.657,0,1.227-0.17,1.693-0.505
				c0.468-0.336,0.839-0.804,1.103-1.391l0.135,0.029c0,0.447,0.132,0.842,0.39,1.173c0.258,0.33,0.623,0.49,1.116,0.49
				c0.27,0,0.501-0.057,0.684-0.17c0.176-0.108,0.268-0.274,0.282-0.507c0.013-0.147-0.004-0.252-0.052-0.312
				c-0.053-0.066-0.121-0.12-0.201-0.16c-0.089-0.045-0.183-0.089-0.28-0.135c-0.107-0.049-0.203-0.124-0.284-0.221
				c-0.132-0.18-0.196-0.407-0.196-0.677v-7.164c0-1.159-0.284-1.994-0.843-2.481c-0.563-0.489-1.437-0.737-2.6-0.737
				c-0.97,0-1.736,0.222-2.276,0.66c-0.539,0.437-0.887,1.075-1.033,1.894c-0.056,0.266-0.014,0.47,0.129,0.627
				c0.148,0.162,0.329,0.254,0.554,0.282c0.151,0.014,0.289-0.003,0.374-0.048c0.088-0.047,0.163-0.115,0.223-0.203
				c0.062-0.089,0.107-0.192,0.135-0.304c0.031-0.122,0.069-0.252,0.114-0.388c0.107-0.369,0.297-0.673,0.562-0.899
				C101.104,13.604,101.491,13.488,101.986,13.488z M101.4,23.61c-0.268,0-0.502-0.065-0.693-0.192
				c-0.188-0.126-0.343-0.288-0.461-0.485c-0.116-0.192-0.202-0.407-0.256-0.639c-0.054-0.228-0.081-0.453-0.081-0.669
				c0-0.533,0.07-0.96,0.209-1.268c0.139-0.31,0.324-0.557,0.55-0.737c0.223-0.177,0.481-0.314,0.766-0.406
				c0.269-0.088,0.558-0.175,0.859-0.26c0.287-0.081,0.568-0.186,0.834-0.311c0.259-0.122,0.484-0.308,0.672-0.553l0.127-0.167v2.62
				c0,0.38-0.054,0.754-0.16,1.113c-0.108,0.36-0.271,0.69-0.484,0.979c-0.216,0.293-0.481,0.53-0.788,0.707
				C102.184,23.52,101.816,23.61,101.4,23.61z M103.785,18.328c-0.174,0.19-0.374,0.338-0.597,0.443
				c-0.273,0.129-0.561,0.236-0.856,0.32c-0.299,0.084-0.586,0.171-0.853,0.258c-0.268,0.087-0.511,0.216-0.722,0.382
				c-0.208,0.165-0.379,0.394-0.509,0.683c-0.13,0.289-0.196,0.696-0.196,1.209c0,0.205,0.026,0.419,0.077,0.637
				c0.051,0.218,0.132,0.419,0.24,0.599c0.107,0.178,0.247,0.326,0.418,0.439c0.168,0.112,0.374,0.169,0.615,0.169
				c0.39,0,0.734-0.084,1.023-0.25c0.289-0.167,0.54-0.391,0.744-0.668c0.204-0.276,0.359-0.591,0.462-0.936
				c0.103-0.345,0.154-0.706,0.154-1.072V18.328z"/>
		</g>
		<g>
			<path fill="#808184" d="M115.187,13.176c0,0.346-0.09,0.549-0.27,0.608c-0.18,0.06-0.42,0.113-0.721,0.158
				c-0.811,0.12-1.423,0.495-1.836,1.126c-0.413,0.631-0.619,1.359-0.619,2.185v6.488c0,0.256-0.075,0.485-0.225,0.687
				c-0.151,0.203-0.353,0.311-0.608,0.327c-0.256,0.015-0.466-0.086-0.631-0.304c-0.166-0.218-0.248-0.454-0.248-0.71V13.447
				c0-0.255,0.067-0.484,0.202-0.687c0.135-0.202,0.331-0.304,0.586-0.304c0.255,0,0.454,0.102,0.597,0.304
				c0.142,0.203,0.214,0.432,0.214,0.687v1.014c0.195-0.586,0.514-1.085,0.958-1.498c0.442-0.413,0.98-0.657,1.61-0.732
				c0.331-0.075,0.578,0,0.744,0.225C115.104,12.681,115.187,12.921,115.187,13.176z"/>
			<path fill="#808184" d="M110.858,24.828c-0.257,0-0.472-0.112-0.639-0.333c-0.174-0.229-0.262-0.482-0.262-0.753V13.447
				c0-0.268,0.072-0.513,0.214-0.726c0.149-0.223,0.366-0.336,0.645-0.336c0.278,0,0.499,0.112,0.655,0.334
				c0.151,0.215,0.227,0.46,0.227,0.728v0.636c0.199-0.445,0.481-0.838,0.838-1.172c0.452-0.421,1.007-0.674,1.65-0.75
				c0.08-0.019,0.164-0.029,0.241-0.029c0.24,0,0.431,0.095,0.568,0.282c0.174,0.237,0.262,0.494,0.262,0.763
				c0,0.378-0.107,0.606-0.319,0.676c-0.185,0.062-0.431,0.115-0.733,0.161c-0.787,0.116-1.388,0.485-1.787,1.095
				c-0.403,0.616-0.608,1.338-0.608,2.146v6.488c0,0.269-0.081,0.515-0.239,0.729c-0.163,0.22-0.385,0.339-0.661,0.355
				C110.893,24.828,110.876,24.828,110.858,24.828z M110.816,12.526c-0.232,0-0.404,0.089-0.526,0.273
				c-0.127,0.19-0.191,0.408-0.191,0.648v10.295c0,0.239,0.079,0.463,0.233,0.667c0.151,0.199,0.337,0.288,0.571,0.276
				c0.235-0.014,0.417-0.111,0.555-0.298c0.14-0.19,0.212-0.407,0.212-0.645v-6.488c0-0.836,0.212-1.584,0.631-2.224
				c0.421-0.645,1.056-1.035,1.885-1.158c0.293-0.044,0.532-0.096,0.709-0.155c0.147-0.048,0.222-0.23,0.222-0.541
				c0-0.239-0.079-0.467-0.234-0.679c-0.15-0.203-0.369-0.266-0.671-0.198c-0.62,0.074-1.148,0.314-1.578,0.714
				c-0.433,0.403-0.748,0.898-0.939,1.469l-0.138-0.023v-1.014c0-0.239-0.067-0.457-0.201-0.647
				C111.226,12.616,111.049,12.526,110.816,12.526z"/>
		</g>
		<g>
			<path fill="#808184" d="M122.035,13.154c0.015,0.241-0.087,0.424-0.304,0.552c-0.218,0.128-0.447,0.192-0.687,0.192h-1.013v8.29
				c0,0.405,0.082,0.702,0.247,0.89c0.165,0.188,0.413,0.304,0.744,0.349c0.27,0.045,0.503,0.117,0.699,0.214
				c0.195,0.098,0.293,0.274,0.293,0.53c0,0.301-0.098,0.504-0.293,0.608c-0.196,0.105-0.428,0.173-0.699,0.203h-0.428
				c-0.616,0-1.142-0.158-1.577-0.473c-0.436-0.315-0.653-0.803-0.653-1.464v-9.146h-0.721c-0.241,0-0.469-0.064-0.687-0.192
				c-0.218-0.128-0.319-0.311-0.304-0.552c0.015-0.24,0.124-0.417,0.327-0.529c0.202-0.112,0.424-0.169,0.664-0.169h0.721V10.18
				c0-0.255,0.075-0.484,0.225-0.687c0.15-0.203,0.353-0.304,0.609-0.304c0.255,0,0.458,0.101,0.608,0.304
				c0.15,0.203,0.225,0.432,0.225,0.687v2.275h1.013c0.24,0,0.462,0.057,0.665,0.169C121.911,12.737,122.02,12.914,122.035,13.154z"
				/>
			<path fill="#808184" d="M121.025,25.052h-0.432c-0.628,0-1.173-0.164-1.619-0.486c-0.453-0.328-0.682-0.84-0.682-1.522v-9.075
				h-0.65c-0.252,0-0.495-0.067-0.723-0.201c-0.242-0.142-0.356-0.35-0.339-0.617c0.017-0.265,0.139-0.463,0.363-0.587
				c0.213-0.118,0.448-0.178,0.699-0.178h0.65V10.18c0-0.269,0.08-0.515,0.239-0.729c0.164-0.221,0.388-0.333,0.666-0.333
				c0.278,0,0.501,0.112,0.665,0.333c0.158,0.215,0.239,0.46,0.239,0.729v2.204h0.943c0.251,0,0.486,0.06,0.699,0.178
				c0.224,0.125,0.347,0.322,0.363,0.587c0.016,0.268-0.098,0.476-0.339,0.617c-0.228,0.134-0.471,0.201-0.723,0.201h-0.943v8.219
				c0,0.386,0.077,0.67,0.23,0.843c0.153,0.174,0.388,0.283,0.7,0.326c0.278,0.047,0.52,0.121,0.721,0.221
				c0.22,0.111,0.332,0.31,0.332,0.593c0,0.327-0.111,0.553-0.33,0.671c-0.202,0.109-0.446,0.179-0.725,0.211L121.025,25.052z
				 M117.642,12.526c-0.227,0-0.439,0.054-0.63,0.16c-0.181,0.101-0.276,0.255-0.29,0.472c-0.014,0.213,0.074,0.372,0.269,0.486
				c0.206,0.121,0.425,0.182,0.651,0.182h0.792v9.217c0,0.634,0.21,1.107,0.624,1.406c0.421,0.305,0.938,0.46,1.536,0.46h0.424
				c0.259-0.029,0.484-0.095,0.669-0.195c0.172-0.092,0.256-0.271,0.256-0.546c0-0.228-0.083-0.38-0.254-0.466
				c-0.188-0.094-0.417-0.164-0.679-0.208c-0.345-0.047-0.61-0.172-0.785-0.372c-0.176-0.2-0.265-0.515-0.265-0.937v-8.361h1.084
				c0.226,0,0.445-0.061,0.652-0.182c0.194-0.114,0.282-0.273,0.269-0.486c-0.014-0.217-0.109-0.371-0.29-0.472
				c-0.192-0.107-0.404-0.16-0.631-0.16h-1.084V10.18c0-0.238-0.071-0.455-0.212-0.645c-0.137-0.185-0.318-0.275-0.551-0.275
				c-0.234,0-0.415,0.09-0.551,0.275c-0.14,0.189-0.211,0.406-0.211,0.645v2.346H117.642z"/>
		</g>
		<g>
			<path fill="#808184" d="M127.599,23.697c0,0.301-0.105,0.552-0.315,0.755c-0.21,0.203-0.465,0.304-0.766,0.304
				c-0.301,0-0.556-0.101-0.766-0.304c-0.211-0.203-0.315-0.454-0.315-0.755c0-0.3,0.105-0.555,0.315-0.766
				c0.21-0.21,0.465-0.316,0.766-0.316c0.3,0,0.555,0.106,0.766,0.316C127.494,23.141,127.599,23.397,127.599,23.697z"/>
			<path fill="#808184" d="M126.518,24.827c-0.318,0-0.593-0.109-0.815-0.324c-0.223-0.215-0.337-0.486-0.337-0.806
				c0-0.319,0.113-0.594,0.336-0.816c0.223-0.223,0.498-0.336,0.816-0.336c0.318,0,0.593,0.113,0.816,0.336
				c0.223,0.223,0.336,0.498,0.336,0.816c0,0.319-0.113,0.59-0.337,0.806C127.111,24.718,126.836,24.827,126.518,24.827z
				 M126.518,22.686c-0.283,0-0.517,0.097-0.716,0.295c-0.198,0.198-0.295,0.432-0.295,0.715c0,0.284,0.096,0.513,0.294,0.703
				c0.198,0.192,0.433,0.285,0.717,0.285c0.284,0,0.518-0.093,0.716-0.284c0.198-0.191,0.294-0.421,0.294-0.704
				c0-0.283-0.096-0.517-0.295-0.715C127.035,22.783,126.802,22.686,126.518,22.686z"/>
		</g>
		<g>
			<path fill="#808184" d="M139.764,21.399c-0.075,0.481-0.21,0.946-0.405,1.397c-0.196,0.451-0.451,0.843-0.766,1.176
				c-0.315,0.333-0.687,0.6-1.115,0.799c-0.428,0.2-0.912,0.3-1.453,0.3c-0.886,0-1.6-0.21-2.14-0.631
				c-0.54-0.42-0.957-0.954-1.25-1.6c-0.293-0.645-0.484-1.355-0.574-2.129c-0.09-0.773-0.135-1.506-0.135-2.197
				c0-0.691,0.056-1.411,0.169-2.163c0.113-0.751,0.319-1.438,0.619-2.061c0.3-0.623,0.721-1.138,1.262-1.543
				c0.541-0.405,1.239-0.608,2.095-0.608c0.481,0,0.931,0.083,1.352,0.248c0.42,0.166,0.792,0.391,1.115,0.676
				c0.323,0.285,0.589,0.623,0.8,1.013c0.21,0.391,0.345,0.811,0.405,1.262c0.03,0.301-0.011,0.537-0.124,0.709
				c-0.113,0.173-0.342,0.267-0.687,0.282c-0.27,0.015-0.484-0.064-0.642-0.237c-0.157-0.172-0.274-0.424-0.349-0.754
				c-0.105-0.451-0.304-0.845-0.597-1.183c-0.293-0.338-0.703-0.506-1.228-0.506c-0.315,0-0.623,0.064-0.923,0.192
				c-0.301,0.128-0.533,0.335-0.698,0.621c-0.346,0.587-0.549,1.242-0.609,1.964c-0.06,0.723-0.09,1.423-0.09,2.1
				c0,0.587,0.023,1.189,0.067,1.806c0.03,0.362,0.087,0.73,0.169,1.107c0.082,0.376,0.214,0.722,0.394,1.038
				c0.18,0.316,0.413,0.576,0.699,0.779c0.285,0.203,0.645,0.305,1.081,0.305c0.3,0,0.559-0.064,0.777-0.192
				c0.218-0.127,0.402-0.293,0.552-0.496c0.15-0.202,0.27-0.431,0.361-0.687c0.09-0.255,0.157-0.518,0.202-0.789
				c0.09-0.66,0.391-0.984,0.902-0.969c0.345,0.015,0.57,0.109,0.676,0.282C139.779,20.885,139.81,21.114,139.764,21.399z"/>
			<path fill="#808184" d="M136.025,25.142c-0.898,0-1.633-0.217-2.184-0.645c-0.548-0.426-0.975-0.973-1.271-1.627
				c-0.295-0.649-0.49-1.373-0.58-2.15c-0.09-0.772-0.135-1.515-0.135-2.205c0-0.691,0.057-1.422,0.169-2.173
				c0.114-0.756,0.325-1.457,0.626-2.082c0.304-0.63,0.736-1.158,1.283-1.569c0.551-0.413,1.27-0.622,2.137-0.622
				c0.487,0,0.951,0.085,1.378,0.253c0.427,0.168,0.809,0.4,1.136,0.689c0.327,0.288,0.601,0.636,0.815,1.033
				c0.213,0.396,0.352,0.829,0.413,1.286c0.031,0.318-0.014,0.572-0.134,0.757c-0.126,0.193-0.376,0.298-0.744,0.314
				c-0.022,0.001-0.045,0.002-0.067,0.002c-0.26,0-0.471-0.088-0.63-0.262c-0.166-0.181-0.289-0.446-0.366-0.787
				c-0.102-0.437-0.297-0.824-0.581-1.152c-0.277-0.32-0.672-0.482-1.174-0.482c-0.304,0-0.605,0.063-0.896,0.186
				c-0.285,0.121-0.508,0.32-0.664,0.591c-0.339,0.576-0.541,1.227-0.599,1.935c-0.06,0.716-0.09,1.42-0.09,2.094
				c0,0.583,0.022,1.189,0.067,1.801c0.03,0.357,0.086,0.726,0.168,1.097c0.08,0.365,0.21,0.708,0.386,1.018
				c0.174,0.306,0.403,0.56,0.678,0.756c0.271,0.194,0.621,0.292,1.04,0.292c0.286,0,0.536-0.061,0.741-0.182
				c0.209-0.122,0.387-0.282,0.531-0.477c0.146-0.196,0.264-0.421,0.351-0.668c0.088-0.25,0.155-0.511,0.199-0.777
				c0.093-0.682,0.409-1.028,0.937-1.028l0.036,0c0.37,0.016,0.616,0.122,0.734,0.316c0.114,0.187,0.147,0.434,0.099,0.735
				c-0.076,0.485-0.214,0.961-0.41,1.414c-0.198,0.457-0.461,0.859-0.78,1.197c-0.321,0.339-0.703,0.613-1.137,0.815
				C137.073,25.039,136.574,25.142,136.025,25.142z M136.07,12.211c-0.836,0-1.526,0.2-2.052,0.594
				c-0.529,0.397-0.947,0.908-1.24,1.518c-0.295,0.612-0.502,1.299-0.613,2.041c-0.111,0.744-0.168,1.468-0.168,2.152
				c0,0.685,0.045,1.421,0.134,2.188c0.089,0.763,0.28,1.472,0.569,2.108c0.286,0.632,0.7,1.161,1.229,1.573
				c0.526,0.409,1.231,0.616,2.097,0.616c0.528,0,1.007-0.099,1.423-0.293c0.417-0.195,0.785-0.458,1.094-0.784
				c0.307-0.326,0.561-0.714,0.752-1.156c0.192-0.442,0.326-0.906,0.4-1.379c0.043-0.267,0.015-0.482-0.081-0.639
				c-0.091-0.151-0.3-0.234-0.618-0.248l-0.031,0c-0.453,0-0.713,0.297-0.797,0.908c-0.046,0.275-0.115,0.545-0.206,0.802
				c-0.092,0.261-0.217,0.498-0.371,0.705c-0.155,0.21-0.349,0.384-0.573,0.515c-0.227,0.133-0.5,0.201-0.813,0.201
				c-0.449,0-0.827-0.107-1.122-0.318c-0.292-0.208-0.534-0.477-0.719-0.801c-0.184-0.323-0.319-0.68-0.402-1.058
				c-0.083-0.376-0.14-0.752-0.171-1.116c-0.045-0.616-0.067-1.226-0.067-1.812c0-0.678,0.03-1.386,0.09-2.106
				c0.061-0.73,0.269-1.401,0.618-1.995c0.171-0.297,0.418-0.516,0.731-0.65c0.308-0.131,0.628-0.197,0.951-0.197
				c0.545,0,0.976,0.178,1.282,0.531c0.299,0.346,0.505,0.754,0.612,1.213c0.072,0.317,0.184,0.56,0.332,0.723
				c0.145,0.158,0.339,0.229,0.586,0.214c0.32-0.014,0.533-0.097,0.632-0.249c0.103-0.158,0.141-0.381,0.113-0.664
				c-0.059-0.438-0.193-0.854-0.397-1.235c-0.206-0.382-0.47-0.717-0.784-0.994c-0.315-0.278-0.683-0.501-1.094-0.663
				C136.986,12.293,136.539,12.211,136.07,12.211z"/>
		</g>
		<g>
			<path fill="#808184" d="M152.245,18.628c0,0.436-0.004,0.785-0.011,1.048c-0.008,0.263-0.019,0.44-0.034,0.529
				c-0.045,0.631-0.154,1.239-0.327,1.825c-0.173,0.586-0.428,1.104-0.766,1.555c-0.338,0.451-0.766,0.811-1.284,1.081
				c-0.518,0.27-1.138,0.405-1.858,0.405c-0.946,0-1.709-0.191-2.287-0.574c-0.578-0.383-1.022-0.886-1.329-1.509
				c-0.308-0.623-0.511-1.318-0.608-2.084c-0.098-0.766-0.147-1.532-0.147-2.298c0-0.736,0.064-1.487,0.192-2.253
				c0.128-0.766,0.356-1.46,0.687-2.084c0.331-0.623,0.781-1.134,1.352-1.532c0.571-0.397,1.299-0.597,2.185-0.597
				c0.706,0,1.318,0.151,1.836,0.451c0.518,0.301,0.947,0.687,1.284,1.16s0.597,0.999,0.777,1.577
				c0.18,0.578,0.278,1.145,0.293,1.701c0,0.06,0.007,0.233,0.022,0.518C152.237,17.832,152.245,18.193,152.245,18.628z
				 M150.375,18.55c0-0.584-0.019-1.072-0.056-1.461c-0.038-0.389-0.056-0.621-0.056-0.697c-0.046-0.329-0.117-0.659-0.215-0.989
				c-0.098-0.33-0.238-0.622-0.419-0.877c-0.181-0.255-0.411-0.464-0.69-0.629c-0.279-0.165-0.615-0.247-1.007-0.247
				c-0.377,0-0.713,0.083-1.007,0.247s-0.54,0.374-0.736,0.629c-0.197,0.255-0.351,0.547-0.464,0.877
				c-0.113,0.33-0.185,0.66-0.215,0.989c-0.045,0.375-0.067,0.749-0.067,1.124c0,0.36,0,0.727,0,1.101c0,0.21,0,0.427,0,0.652
				c0,0.225,0.007,0.457,0.022,0.697c0.015,0.375,0.056,0.775,0.124,1.203c0.068,0.427,0.193,0.82,0.374,1.18
				c0.181,0.36,0.426,0.66,0.736,0.899c0.309,0.24,0.705,0.359,1.188,0.359c0.407,0,0.75-0.079,1.03-0.236
				c0.279-0.157,0.513-0.367,0.702-0.63c0.189-0.262,0.332-0.562,0.43-0.899c0.098-0.337,0.17-0.678,0.215-1.023
				c0,0.03,0.007-0.015,0.022-0.135c0.015-0.12,0.03-0.288,0.045-0.506c0.015-0.218,0.026-0.468,0.034-0.753
				C150.371,19.142,150.375,18.849,150.375,18.55z"/>
			<path fill="#808184" d="M147.965,25.142c-0.957,0-1.739-0.197-2.326-0.586c-0.587-0.388-1.042-0.905-1.354-1.537
				c-0.31-0.628-0.517-1.337-0.615-2.107c-0.098-0.765-0.147-1.541-0.147-2.307c0-0.735,0.065-1.497,0.193-2.265
				c0.128-0.77,0.362-1.478,0.694-2.105c0.334-0.63,0.796-1.154,1.374-1.557c0.581-0.405,1.33-0.61,2.226-0.61
				c0.715,0,1.344,0.155,1.871,0.46c0.526,0.305,0.965,0.702,1.306,1.181c0.341,0.477,0.606,1.014,0.788,1.597
				c0.181,0.582,0.281,1.161,0.296,1.72c0,0.045,0.004,0.168,0.022,0.516c0.015,0.292,0.022,0.657,0.022,1.085
				c0,0.429-0.004,0.782-0.011,1.05c-0.008,0.269-0.019,0.445-0.035,0.539c-0.044,0.624-0.155,1.243-0.329,1.833
				c-0.175,0.592-0.436,1.122-0.777,1.577c-0.342,0.457-0.782,0.828-1.308,1.102C149.331,25.003,148.694,25.142,147.965,25.142z
				 M148.01,12.211c-0.867,0-1.588,0.197-2.145,0.584c-0.559,0.39-1.006,0.897-1.33,1.507c-0.325,0.613-0.553,1.307-0.68,2.062
				c-0.127,0.76-0.191,1.514-0.191,2.241c0,0.76,0.049,1.53,0.146,2.289c0.096,0.754,0.298,1.448,0.601,2.062
				c0.3,0.609,0.739,1.107,1.305,1.481c0.563,0.374,1.319,0.563,2.247,0.563c0.706,0,1.32-0.133,1.826-0.397
				c0.506-0.264,0.931-0.621,1.26-1.061c0.331-0.441,0.585-0.957,0.755-1.532c0.171-0.581,0.28-1.19,0.324-1.809
				c0.015-0.093,0.026-0.268,0.034-0.527c0.007-0.266,0.011-0.618,0.011-1.046c0-0.426-0.008-0.789-0.022-1.078
				c-0.01-0.194-0.022-0.441-0.022-0.521c-0.015-0.544-0.112-1.11-0.29-1.68c-0.177-0.568-0.435-1.092-0.767-1.557
				c-0.329-0.462-0.754-0.845-1.262-1.14C149.305,12.36,148.7,12.211,148.01,12.211z M147.886,23.678
				c-0.497,0-0.911-0.126-1.232-0.374c-0.317-0.245-0.571-0.556-0.756-0.923c-0.183-0.365-0.311-0.769-0.38-1.201
				c-0.068-0.43-0.11-0.837-0.125-1.211c-0.015-0.236-0.022-0.472-0.022-0.7v-1.754c0-0.375,0.023-0.756,0.068-1.132
				c0.03-0.332,0.104-0.671,0.219-1.003c0.115-0.336,0.275-0.638,0.475-0.897c0.201-0.261,0.456-0.479,0.757-0.648
				c0.304-0.17,0.655-0.256,1.042-0.256c0.403,0,0.754,0.087,1.043,0.257c0.286,0.169,0.526,0.388,0.712,0.649
				c0.185,0.26,0.329,0.562,0.429,0.898c0.099,0.333,0.172,0.669,0.218,0.999c0.001,0.061,0.01,0.222,0.056,0.7
				c0.038,0.394,0.057,0.887,0.057,1.468c0,0.3-0.004,0.593-0.011,0.879c-0.008,0.284-0.019,0.538-0.034,0.756
				c-0.015,0.214-0.03,0.385-0.045,0.509c-0.01,0.079-0.016,0.128-0.026,0.159c-0.045,0.338-0.117,0.678-0.214,1.01
				c-0.1,0.344-0.248,0.654-0.441,0.921c-0.194,0.269-0.438,0.488-0.724,0.65C148.662,23.596,148.304,23.678,147.886,23.678z
				 M147.931,13.721c-0.363,0-0.69,0.08-0.972,0.239c-0.285,0.159-0.525,0.365-0.714,0.611c-0.191,0.247-0.343,0.535-0.453,0.856
				c-0.11,0.322-0.182,0.649-0.211,0.972c-0.045,0.373-0.067,0.748-0.067,1.118v1.754c0,0.225,0.008,0.458,0.022,0.692
				c0.015,0.37,0.056,0.772,0.123,1.196c0.066,0.417,0.19,0.807,0.367,1.16c0.175,0.348,0.416,0.642,0.716,0.875
				c0.295,0.229,0.681,0.345,1.145,0.345c0.393,0,0.727-0.076,0.995-0.227c0.268-0.151,0.497-0.356,0.679-0.609
				c0.183-0.254,0.324-0.549,0.42-0.878c0.096-0.333,0.168-0.673,0.213-1.012l0.016,0.001l-0.012-0.003
				c0.003-0.013,0.009-0.057,0.019-0.132c0.015-0.121,0.03-0.29,0.044-0.502c0.015-0.216,0.026-0.468,0.034-0.75
				c0.007-0.284,0.011-0.575,0.011-0.875c0-0.576-0.019-1.066-0.056-1.454c-0.038-0.388-0.057-0.625-0.057-0.704
				c-0.044-0.313-0.116-0.642-0.212-0.968c-0.096-0.32-0.233-0.608-0.409-0.856c-0.174-0.245-0.399-0.45-0.669-0.609
				C148.635,13.801,148.309,13.721,147.931,13.721z"/>
		</g>
		<g>
			<path fill="#808184" d="M169.929,23.742c0,0.256-0.083,0.485-0.247,0.687c-0.166,0.203-0.376,0.304-0.631,0.304
				c-0.255,0-0.469-0.101-0.642-0.304c-0.173-0.203-0.259-0.432-0.259-0.687v-7.479c0-0.315-0.015-0.627-0.045-0.935
				c-0.03-0.308-0.101-0.582-0.214-0.822c-0.112-0.24-0.286-0.436-0.518-0.586c-0.233-0.15-0.552-0.225-0.957-0.225
				c-0.36,0-0.691,0.064-0.991,0.191c-0.3,0.128-0.563,0.305-0.788,0.529c-0.225,0.225-0.398,0.492-0.518,0.8
				c-0.12,0.308-0.18,0.635-0.18,0.98v7.546c0,0.256-0.083,0.485-0.248,0.687c-0.165,0.203-0.375,0.304-0.631,0.304
				c-0.256,0-0.469-0.101-0.642-0.304c-0.173-0.203-0.259-0.432-0.259-0.687v-7.569c0-0.301-0.026-0.597-0.079-0.89
				c-0.053-0.293-0.147-0.559-0.282-0.799c-0.135-0.24-0.319-0.432-0.552-0.574c-0.233-0.143-0.529-0.214-0.89-0.214
				c-0.33,0-0.646,0.06-0.946,0.18c-0.301,0.121-0.563,0.289-0.789,0.507c-0.225,0.218-0.405,0.473-0.541,0.766
				c-0.135,0.293-0.202,0.619-0.202,0.98v7.614c0,0.256-0.075,0.485-0.225,0.687c-0.151,0.203-0.353,0.304-0.608,0.304
				c-0.256,0-0.462-0.101-0.62-0.304c-0.157-0.203-0.236-0.432-0.236-0.687V13.447c0-0.24,0.064-0.465,0.191-0.676
				c0.128-0.21,0.312-0.323,0.552-0.338c0.255-0.015,0.454,0.087,0.597,0.304c0.143,0.218,0.214,0.455,0.214,0.71v0.496
				c0.345-0.601,0.807-1.051,1.386-1.352c0.578-0.3,1.205-0.451,1.881-0.451c0.586,0,1.138,0.147,1.656,0.439
				c0.518,0.293,0.852,0.747,1.002,1.363c0.3-0.586,0.74-1.033,1.318-1.341c0.578-0.307,1.197-0.462,1.858-0.462
				c0.931,0,1.678,0.278,2.242,0.834c0.563,0.556,0.845,1.284,0.845,2.185V23.742z"/>
			<path fill="#808184" d="M169.051,24.804c-0.276,0-0.51-0.11-0.696-0.329c-0.183-0.215-0.276-0.462-0.276-0.733v-7.479
				c0-0.31-0.015-0.622-0.044-0.928c-0.03-0.3-0.1-0.569-0.208-0.799c-0.107-0.227-0.272-0.414-0.493-0.556
				c-0.22-0.142-0.529-0.214-0.919-0.214c-0.348,0-0.673,0.063-0.964,0.186c-0.291,0.124-0.549,0.297-0.766,0.514
				c-0.218,0.218-0.387,0.478-0.503,0.775c-0.116,0.298-0.176,0.619-0.176,0.954v7.546c0,0.271-0.088,0.517-0.264,0.732
				c-0.179,0.219-0.409,0.33-0.686,0.33c-0.276,0-0.51-0.11-0.696-0.329c-0.183-0.215-0.276-0.461-0.276-0.733v-7.569
				c0-0.294-0.026-0.59-0.078-0.878c-0.051-0.284-0.143-0.545-0.274-0.777c-0.129-0.228-0.306-0.413-0.527-0.549
				c-0.22-0.135-0.508-0.204-0.853-0.204c-0.32,0-0.629,0.059-0.92,0.175c-0.291,0.117-0.549,0.282-0.766,0.492
				c-0.218,0.211-0.395,0.461-0.526,0.745c-0.13,0.282-0.196,0.602-0.196,0.95v7.614c0,0.269-0.081,0.515-0.239,0.729
				c-0.164,0.221-0.388,0.333-0.665,0.333c-0.277,0-0.505-0.111-0.676-0.331c-0.166-0.215-0.251-0.461-0.251-0.731V13.447
				c0-0.253,0.068-0.492,0.201-0.712c0.14-0.231,0.344-0.356,0.608-0.373c0.281-0.013,0.504,0.097,0.66,0.336
				c0.15,0.229,0.226,0.481,0.226,0.749v0.246c0.334-0.505,0.765-0.896,1.282-1.165c0.586-0.304,1.23-0.459,1.914-0.459
				c0.595,0,1.164,0.151,1.691,0.449c0.484,0.274,0.816,0.689,0.989,1.237c0.302-0.522,0.727-0.93,1.263-1.216
				c0.586-0.312,1.223-0.47,1.891-0.47c0.946,0,1.716,0.287,2.291,0.854c0.574,0.567,0.866,1.319,0.866,2.236v8.583
				c0,0.271-0.088,0.517-0.263,0.732C169.558,24.693,169.327,24.804,169.051,24.804z M166.415,13.624
				c0.417,0,0.752,0.08,0.996,0.237c0.243,0.157,0.426,0.364,0.544,0.615c0.115,0.245,0.19,0.529,0.22,0.846
				c0.03,0.31,0.046,0.627,0.046,0.942v7.479c0,0.24,0.079,0.45,0.242,0.641c0.159,0.188,0.352,0.279,0.588,0.279
				c0.235,0,0.423-0.091,0.576-0.278c0.156-0.192,0.231-0.402,0.231-0.642v-8.583c0-0.877-0.277-1.595-0.824-2.135
				c-0.547-0.539-1.284-0.813-2.192-0.813c-0.645,0-1.259,0.153-1.825,0.454c-0.563,0.3-0.996,0.741-1.288,1.31l-0.087,0.17
				l-0.045-0.185c-0.145-0.593-0.47-1.036-0.968-1.318c-0.506-0.286-1.051-0.43-1.621-0.43c-0.661,0-1.283,0.149-1.848,0.443
				c-0.564,0.293-1.02,0.739-1.357,1.324l-0.133,0.231v-0.762c0-0.24-0.068-0.466-0.202-0.671c-0.129-0.197-0.304-0.285-0.534-0.272
				c-0.217,0.014-0.379,0.113-0.495,0.304c-0.12,0.198-0.181,0.413-0.181,0.639v10.295c0,0.241,0.072,0.452,0.221,0.644
				c0.145,0.186,0.329,0.277,0.564,0.277c0.233,0,0.414-0.09,0.551-0.275c0.14-0.19,0.212-0.407,0.212-0.645v-7.614
				c0-0.369,0.07-0.708,0.209-1.01c0.139-0.3,0.326-0.565,0.556-0.787c0.231-0.223,0.504-0.398,0.812-0.522
				c0.307-0.123,0.635-0.185,0.972-0.185c0.372,0,0.684,0.075,0.927,0.224c0.242,0.148,0.436,0.35,0.576,0.6
				c0.138,0.246,0.236,0.522,0.29,0.821c0.053,0.297,0.08,0.6,0.08,0.903v7.569c0,0.241,0.079,0.45,0.242,0.641
				c0.16,0.188,0.352,0.279,0.588,0.279c0.235,0,0.423-0.091,0.575-0.278c0.156-0.192,0.232-0.402,0.232-0.642v-7.546
				c0-0.352,0.062-0.691,0.185-1.006c0.123-0.315,0.303-0.593,0.534-0.824c0.23-0.23,0.503-0.413,0.811-0.544
				C165.705,13.69,166.047,13.624,166.415,13.624z"/>
		</g>
	</g>
</g>
</svg>
